<svg width="22" height="22" viewBox="0 0 22 22" fill="none" xmlns="http://www.w3.org/2000/svg">
<g id="clarity:storage-line" clip-path="url(#clip0_281_903)">
<path id="Vector" d="M20.1666 4.08833C20.0566 2.00444 14.3794 1.44222 11 1.44222C7.62053 1.44222 1.83331 2.01056 1.83331 4.14333V17.9483C1.83331 20.0811 7.59609 20.6556 11 20.6556C14.4039 20.6556 20.1666 20.0872 20.1666 17.9483V4.08833ZM18.9444 8.70833C18.7428 9.23389 15.8522 10.2056 11 10.2056C8.73042 10.2635 6.46487 9.98337 4.27776 9.37444V10.6456C6.47581 11.1928 8.735 11.4557 11 11.4278C13.4444 11.4278 17.0683 11.1344 18.9444 10.2056V13.365C18.7428 13.8906 15.8522 14.8622 11 14.8622C8.7292 14.9122 6.46363 14.6238 4.27776 14.0067V15.2778C6.47581 15.825 8.735 16.0879 11 16.06C13.4444 16.06 17.0683 15.7667 18.9444 14.8378V17.9544C18.7305 18.48 15.84 19.4517 11 19.4517C6.15998 19.4517 3.23887 18.4556 3.05554 17.9483V4.16778C3.23887 3.66667 6.11109 2.66444 11 2.66444C15.7483 2.66444 18.6144 3.59944 18.9444 4.11278C18.6266 4.64444 15.7605 5.57333 11 5.57333C8.73049 5.62989 6.46514 5.34982 4.27776 4.74222V6.01945C6.47632 6.56325 8.73534 6.82407 11 6.79556C13.4444 6.79556 17.0683 6.50222 18.9444 5.57333V8.70833Z" fill="#0376FF"/>
</g>
<defs>
<clipPath id="clip0_281_903">
<rect width="22" height="22" fill="white"/>
</clipPath>
</defs>
</svg>
