<svg width="24" height="22" viewBox="0 0 24 22" fill="none" xmlns="http://www.w3.org/2000/svg">
<g id="Frame 48095947">
<path id="Subtract" fill-rule="evenodd" clip-rule="evenodd" d="M6.48047 14.4762C7.28294 16.1654 9.00474 17.3333 10.9993 17.3333H14.6236C14.8658 17.3333 15.0998 17.4213 15.2821 17.5808L20.3327 22V17.3333C22.3577 17.3333 23.9993 15.6917 23.9993 13.6667V11.5C23.9993 8.73858 21.7607 6.5 18.9993 6.5H18.9712C18.6818 9.49331 16.159 11.8333 13.0898 11.8333H9.87658C9.63435 11.8333 9.40036 11.9213 9.21807 12.0808L6.48047 14.4762Z" fill="black"/>
<path id="Vector" d="M0 7.16667V5C0 2.23858 2.23858 0 5 0H13C15.7614 0 18 2.23857 18 5V5.83333C18 8.59476 15.7614 10.8333 13 10.8333H9.37574C9.13351 10.8333 8.89952 10.9213 8.71723 11.0808L3.66667 15.5V10.8333C1.64162 10.8333 0 9.19171 0 7.16667Z" fill="black"/>
</g>
</svg>
