<svg width="129" height="116" viewBox="0 0 129 116" fill="none" xmlns="http://www.w3.org/2000/svg">
<g id="Group 10327" opacity="0.9">
<path id="Vector 1" d="M0 25.8062L15.1765 0H45.5294L54.1643 13.0308H83.2089H114.085L129 38.837H98.3854L83.2089 13.0308L75.7407 25.8062H30.0913L15.1765 51.3568H30.3529L37.9412 64.3877H68.2941L83.9939 90.1939H52.3327L37.6795 115.745L22.503 90.1939L29.8296 77.4185L15.1765 51.3568L0 25.8062Z" fill="#00D1FF"/>
<g id="Vector 2">
<path d="M68.2939 38.3259L83.2087 13.0308L98.3852 38.8369H129L113.823 64.3876H98.6468L83.9937 90.1938L68.0322 116L37.6793 115.744L52.3325 90.1938H83.9937L75.8821 76.9074L83.2087 64.3876L68.2939 38.3259Z" fill="#0376FF"/>
<path d="M45.2675 51.3568H15.1763L30.0911 25.8061H60.7057L45.2675 51.3568Z" fill="#0376FF"/>
</g>
</g>
</svg>
