<svg width="18" height="16" viewBox="0 0 18 16" fill="none" xmlns="http://www.w3.org/2000/svg">
<path id="send" d="M1.38806 15.4156C0.728922 15.6931 0 15.2091 0 14.4939V9.49523C0 9.22824 0.106768 8.97233 0.296524 8.78451L0.488124 8.59486C0.859569 8.22721 0.885255 7.63553 0.547069 7.23706L0.23758 6.87241C0.0841988 6.69169 0 6.46236 0 6.22533V1.50608C0 0.790901 0.728923 0.306915 1.38806 0.584445L16.8111 7.07837C17.627 7.42191 17.627 8.57809 16.8111 8.92164L1.38806 15.4156ZM1.43304 13.8156L15.3049 7.97163L1.43304 2.12766V6.59248L7.3901 7.97163L1.43304 9.35078V13.8156Z" fill="#1C1B1F"/>
</svg>
