<svg width="24" height="24" viewBox="0 0 24 24" fill="none" xmlns="http://www.w3.org/2000/svg">
<g id="star">
<mask id="mask0_250_1448" style="mask-type:alpha" maskUnits="userSpaceOnUse" x="0" y="0" width="24" height="24">
<rect id="Bounding box" width="24" height="24" fill="#D9D9D9"/>
</mask>
<g mask="url(#mask0_250_1448)">
<path id="star_2" d="M8.17572 18.5325L11.6166 16.4636C11.9354 16.2719 12.3344 16.2731 12.6521 16.4666L16.0948 18.5638L15.1929 14.6407C15.1098 14.2792 15.2336 13.9014 15.5145 13.6592L18.5459 11.0458L14.5536 10.6914C14.1868 10.6589 13.8675 10.4273 13.7227 10.0887L12.1353 6.37832L10.5486 10.0597C10.4032 10.397 10.0846 10.6275 9.71868 10.6599L5.72457 11.0144L8.75989 13.6585C9.03859 13.9013 9.16065 14.278 9.07729 14.6381L8.17572 18.5325ZM8.28783 19.9409C7.53009 20.3967 6.59707 19.7169 6.7987 18.856L7.81794 14.5036L4.42931 11.5779C3.75974 10.9998 4.11535 9.9009 4.99667 9.82468L9.46172 9.43854L11.2152 5.32154C11.5606 4.51068 12.7099 4.51068 13.0553 5.32154L14.8088 9.43854L19.2738 9.82468C20.1552 9.9009 20.5108 10.9998 19.8412 11.5779L16.4526 14.5036L17.4718 18.856C17.6734 19.7169 16.7404 20.3967 15.9827 19.9409L12.1353 17.6265L8.28783 19.9409Z" fill="#0376FF"/>
</g>
</g>
</svg>
