<svg width="30" height="29" viewBox="0 0 30 29" fill="none" xmlns="http://www.w3.org/2000/svg">
<g id="pic" clip-path="url(#clip0_215_1601)">
<g id="Pic">
<rect id="Bg_2" x="1" width="32.2734" height="32.2734" rx="16.1367" fill="white"/>
<rect id="Bg" x="5" y="4" width="25" height="25" rx="12.5" fill="white"/>
</g>
<path id="account_circle" d="M9.8125 22.875C10.875 22.0625 12.0625 21.4219 13.375 20.9531C14.6875 20.4844 16.0625 20.25 17.5 20.25C18.9375 20.25 20.3125 20.4844 21.625 20.9531C22.9375 21.4219 24.125 22.0625 25.1875 22.875C25.9167 22.0208 26.4844 21.0521 26.8906 19.9688C27.2969 18.8854 27.5 17.7292 27.5 16.5C27.5 13.7292 26.526 11.3698 24.5781 9.42188C22.6302 7.47396 20.2708 6.5 17.5 6.5C14.7292 6.5 12.3698 7.47396 10.4219 9.42188C8.47396 11.3698 7.5 13.7292 7.5 16.5C7.5 17.7292 7.70312 18.8854 8.10938 19.9688C8.51562 21.0521 9.08333 22.0208 9.8125 22.875ZM17.5 17.75C16.2708 17.75 15.2344 17.3281 14.3906 16.4844C13.5469 15.6406 13.125 14.6042 13.125 13.375C13.125 12.1458 13.5469 11.1094 14.3906 10.2656C15.2344 9.42188 16.2708 9 17.5 9C18.7292 9 19.7656 9.42188 20.6094 10.2656C21.4531 11.1094 21.875 12.1458 21.875 13.375C21.875 14.6042 21.4531 15.6406 20.6094 16.4844C19.7656 17.3281 18.7292 17.75 17.5 17.75ZM17.5 29C15.7708 29 14.1458 28.6719 12.625 28.0156C11.1042 27.3594 9.78125 26.4688 8.65625 25.3438C7.53125 24.2188 6.64063 22.8958 5.98438 21.375C5.32812 19.8542 5 18.2292 5 16.5C5 14.7708 5.32812 13.1458 5.98438 11.625C6.64063 10.1042 7.53125 8.78125 8.65625 7.65625C9.78125 6.53125 11.1042 5.64063 12.625 4.98438C14.1458 4.32812 15.7708 4 17.5 4C19.2292 4 20.8542 4.32812 22.375 4.98438C23.8958 5.64063 25.2188 6.53125 26.3438 7.65625C27.4688 8.78125 28.3594 10.1042 29.0156 11.625C29.6719 13.1458 30 14.7708 30 16.5C30 18.2292 29.6719 19.8542 29.0156 21.375C28.3594 22.8958 27.4688 24.2188 26.3438 25.3438C25.2188 26.4688 23.8958 27.3594 22.375 28.0156C20.8542 28.6719 19.2292 29 17.5 29Z" fill="#1C1B1F"/>
</g>
<defs>
<clipPath id="clip0_215_1601">
<rect width="30" height="29" fill="white"/>
</clipPath>
</defs>
</svg>
