<svg width="24" height="24" viewBox="0 0 24 24" fill="none" xmlns="http://www.w3.org/2000/svg">
<g id="verified_user">
<mask id="mask0_250_1463" style="mask-type:alpha" maskUnits="userSpaceOnUse" x="0" y="0" width="24" height="24">
<rect id="Bounding box" width="24" height="24" fill="#D9D9D9"/>
</mask>
<g mask="url(#mask0_250_1463)">
<path id="verified_user_2" d="M10.2429 14.4967C10.6334 14.8872 11.2666 14.8872 11.6571 14.4967L16.2538 9.9L15.1846 8.8308L10.95 13.0654L8.83075 10.9462L7.76155 12.0154L10.2429 14.4967ZM12 21.4807C9.83716 20.891 8.04646 19.6179 6.62787 17.6615C5.20929 15.7051 4.5 13.5179 4.5 11.1V5.34617L12 2.5385L19.5 5.34617V11.1C19.5 13.5179 18.7907 15.7051 17.3721 17.6615C15.9535 19.6179 14.1628 20.891 12 21.4807ZM12 19.9C13.7333 19.35 15.1666 18.25 16.3 16.6C17.4333 14.95 18 13.1167 18 11.1V6.375L12 4.13462L5.99997 6.375V11.1C5.99997 13.1167 6.56664 14.95 7.69997 16.6C8.83331 18.25 10.2666 19.35 12 19.9Z" fill="#0376FF"/>
</g>
</g>
</svg>
